<svg id="svg" xmlns="http://www.w3.org/2000/svg" xmlns:xlink="http://www.w3.org/1999/xlink" width="400" height="400" viewBox="0, 0, 400,400"><g id="svgg"><path id="path0" d="M137.143 83.464 C 104.929 102.005,77.929 117.584,77.143 118.083 C 76.231 118.661,104.550 119.000,155.410 119.019 L 235.107 119.048 235.410 164.683 C 235.578 189.783,235.963 210.567,236.266 210.870 C 236.762 211.365,273.627 190.564,275.405 188.786 C 275.809 188.382,274.503 185.275,272.503 181.883 C 270.503 178.490,259.080 158.786,247.117 138.095 C 209.223 72.553,197.258 51.935,196.475 50.829 C 195.962 50.103,176.673 60.712,137.143 83.464 M211.429 54.790 C 211.429 55.398,280.261 175.099,288.708 189.180 L 290.501 192.170 272.155 202.909 C 233.741 225.395,211.881 238.315,211.250 238.909 C 210.736 239.392,246.189 260.534,249.497 261.718 C 250.387 262.036,250.016 262.657,285.712 200.952 C 299.499 177.119,315.212 150.031,320.628 140.757 C 326.045 131.482,330.476 123.504,330.476 123.027 C 330.476 122.551,305.111 107.639,274.110 89.890 C 211.804 54.219,211.429 54.009,211.429 54.790 M65.714 197.778 C 65.714 235.841,65.875 266.806,66.072 266.587 C 66.268 266.369,84.296 235.556,106.133 198.113 C 127.970 160.671,145.960 129.913,146.110 129.763 C 146.260 129.613,163.590 139.369,184.622 151.443 C 205.653 163.516,223.503 173.641,224.288 173.942 C 225.531 174.419,225.714 171.533,225.714 151.530 L 225.714 128.571 145.714 128.571 L 65.714 128.571 65.714 197.778 M294.286 206.655 C 272.548 244.338,254.472 275.185,254.119 275.204 C 253.765 275.223,238.122 266.322,219.357 255.425 C 200.592 244.527,182.774 234.210,179.762 232.498 L 174.286 229.384 174.286 252.787 L 174.286 276.190 254.286 276.190 L 334.286 276.190 334.286 207.143 C 334.286 169.167,334.179 138.106,334.048 138.118 C 333.917 138.131,316.024 168.973,294.286 206.655 M148.234 144.954 C 146.911 147.031,102.382 224.144,80.701 261.905 C 75.137 271.595,70.320 280.222,69.996 281.076 C 69.551 282.252,70.983 283.506,75.894 286.246 C 84.958 291.300,182.603 347.358,186.632 349.820 L 189.931 351.835 187.951 348.537 C 179.187 333.935,111.152 214.836,110.840 213.552 C 110.525 212.254,118.717 207.070,149.456 189.114 C 170.914 176.579,188.277 166.008,188.040 165.624 C 187.802 165.240,180.432 160.761,171.661 155.670 C 162.890 150.579,154.345 145.593,152.671 144.590 L 149.628 142.766 148.234 144.954 M144.286 204.294 C 133.810 210.319,125.106 215.642,124.945 216.123 C 124.784 216.604,127.828 222.495,131.710 229.213 C 139.171 242.123,153.120 266.407,183.589 319.524 C 193.805 337.333,202.712 352.496,203.382 353.218 C 204.402 354.319,214.302 348.976,264.267 320.361 L 323.935 286.190 244.348 285.947 L 164.762 285.703 164.762 239.518 C 164.762 214.117,164.440 193.334,164.048 193.336 C 163.655 193.337,154.762 198.268,144.286 204.294 " stroke="none" fill="#000000" fill-rule="evenodd"></path></g></svg>